# xmcd
#
# Track frame offsets: 
#        150
#        19763
#        35970
#        53037
#        86586
#        103943
#        119102
#        137970
#        151713
#        163323
#        182099
#        195894
#        213650
#
# Disc length: 3052 seconds
#
# Revision: 0
# Processed by: cddbd v1.5.2PL0 Copyright (c) Steve Scherf et al.
# Submitted via: ExactAudioCopy v0.99pb5
#
DISCID=bc0bea0d
DTITLE=Hard Pressed - In a Different Time
DYEAR=2009
DGENRE=Bluegrass
TTITLE0=Blackbird
TTITLE1=Five Miles from Town
TTITLE2=M&M Cafe
TTITLE3=Shady Grove - Elzic's Farewell
TTITLE4=In a Different Time
TTITLE5=Seneca Creek
TTITLE6=44 Gun
TTITLE7=Backstep Cindy
TTITLE8=Wallflower
TTITLE9=Hangman's Reel
TTITLE10=When the Sky Returns to Winter
TTITLE11=Lost John
TTITLE12=Dog Tales
EXTD=
EXTT0=
EXTT1=
EXTT2=
EXTT3=
EXTT4=
EXTT5=
EXTT6=
EXTT7=
EXTT8=
EXTT9=
EXTT10=
EXTT11=
EXTT12=
PLAYORDER=
